<svg width="45" height="47" viewBox="0 0 45 47" fill="none" xmlns="http://www.w3.org/2000/svg">
<path d="M33.75 23.4998H32.2474C30.6917 23.4998 29.9139 23.4998 29.2691 23.8811C28.6245 24.2624 28.2242 24.9589 27.4239 26.3521L27.366 26.4529C26.6205 27.7507 26.2476 28.3997 25.7053 28.389C25.1629 28.3784 24.8136 27.7153 24.1153 26.3891L20.9516 20.3813C20.3004 19.1448 19.9749 18.5265 19.4548 18.4972C18.9349 18.4678 18.5475 19.0459 17.7727 20.2019L17.242 20.9939C16.419 22.2218 16.0075 22.8357 15.397 23.1676C14.7865 23.4998 14.0689 23.4998 12.6338 23.4998H11.25" stroke="currentColor" stroke-width="3" stroke-linecap="round"/>
<path d="M22.5 10.7719L21.4867 11.7904C21.7519 12.0781 22.1177 12.2406 22.5 12.2406C22.8823 12.2406 23.2481 12.0781 23.5132 11.7904L22.5 10.7719ZM4.98124 26.2345C5.39171 26.923 6.25896 27.1337 6.91826 26.7051C7.57757 26.2764 7.77928 25.3704 7.36881 24.6819L4.98124 26.2345ZM12.2432 30.8863C11.6933 30.3135 10.803 30.3145 10.2544 30.8888C9.70592 31.463 9.70699 32.393 10.2568 32.9658L12.2432 30.8863ZM5.15625 17.8933C5.15625 12.4043 7.51354 8.99853 10.461 7.82752C13.4165 6.65335 17.5337 7.50066 21.4867 11.7904L23.5132 9.75333C19.0292 4.88752 13.7713 3.36954 9.46108 5.08196C5.14286 6.79754 2.34375 11.5302 2.34375 17.8933H5.15625ZM29.0674 38.1872C31.8654 35.8832 35.2194 32.7943 37.8864 29.3431C40.5236 25.9305 42.6562 21.9506 42.6562 17.8932H39.8437C39.8437 20.9305 38.2082 24.2497 35.6979 27.4982C33.2175 30.7079 30.0448 33.6417 27.3262 35.8802L29.0674 38.1872ZM42.6562 17.8932C42.6562 11.5302 39.8571 6.79752 35.5389 5.08194C31.2287 3.36956 25.9708 4.88752 21.4867 9.75333L23.5132 11.7904C27.4663 7.50066 31.5834 6.65335 34.539 7.82752C37.4865 8.99851 39.8437 12.4043 39.8437 17.8932H42.6562ZM15.9327 38.187C18.322 40.1543 19.9689 41.5868 22.5 41.5868V38.6493C21.1299 38.6493 20.2794 38.0256 17.6738 35.8802L15.9327 38.187ZM27.3262 35.8802C24.7206 38.0256 23.8701 38.6493 22.5 38.6493V41.5868C25.0311 41.5868 26.6781 40.1543 29.0674 38.1872L27.3262 35.8802ZM7.36881 24.6819C5.97006 22.3354 5.15625 20.0359 5.15625 17.8933H2.34375C2.34375 20.7915 3.43226 23.636 4.98124 26.2345L7.36881 24.6819ZM17.6738 35.8802C15.9545 34.4646 14.0455 32.7641 12.2432 30.8863L10.2568 32.9658C12.1565 34.9453 14.1529 36.7215 15.9327 38.187L17.6738 35.8802Z" fill="currentColor"/>
</svg>
