<svg width="60" height="58" viewBox="0 0 60 58" fill="none" xmlns="http://www.w3.org/2000/svg">
<path opacity="0.5" d="M5.86485 27.1877C5.31145 25.5843 5 23.9738 5 22.3794C5 8.09462 18.7504 1.60137 30 13.2887C41.2495 1.60137 55 8.09417 55 22.3793C55 23.9737 54.6885 25.5843 54.1353 27.1877H46.5903L46.3102 27.1875C44.946 27.1853 43.7343 27.1834 42.6318 27.658C41.529 28.1327 40.7197 29.0048 39.8083 29.987L39.6213 30.1885L37.048 32.9522C36.791 33.2282 36.3447 33.2202 36.1003 32.9336L27.2222 22.531C26.8732 22.122 26.5 21.6843 26.135 21.3595C25.7098 20.9812 25.0812 20.5557 24.2024 20.5047C23.3236 20.4537 22.6469 20.8034 22.1779 21.1297C21.7752 21.41 21.3504 21.8013 20.9534 22.1671L17.1293 25.6877C15.9499 26.7735 15.7038 26.9586 15.4464 27.058C15.1889 27.1575 14.8787 27.1877 13.25 27.1877H5.86485Z" fill="#2B6CF5"/>
<path d="M54 30.7484H46.4975L46.2191 30.7479C44.8622 30.7463 43.6575 30.7446 42.5609 31.1526C41.4646 31.5605 40.6596 32.3101 39.7535 33.1543L39.5673 33.3273L37.0087 35.7029C36.7531 35.9401 36.3094 35.9332 36.0662 35.6869L27.2377 26.7459C26.8909 26.3943 26.5197 26.0181 26.1565 25.739C25.7339 25.4138 25.1087 25.0481 24.2349 25.0043C23.3611 24.9604 22.6881 25.261 22.2217 25.5415C21.8212 25.7824 21.3989 26.1187 21.0041 26.4331L17.2014 29.4591C16.0286 30.3923 15.7839 30.5512 15.5279 30.6368C15.2719 30.7224 14.9634 30.7484 13.3438 30.7484H6C8.5754 37.1976 16.4201 43.5095 22.4469 47.6158C25.7583 49.8719 27.4139 51 30.0001 51C32.5863 51 34.242 49.8719 37.5531 47.6158C43.5799 43.5095 51.4248 37.1976 54 30.7484Z" fill="#193F8F"/>
</svg>
