<svg width="31" height="30" viewBox="0 0 31 30" fill="none" xmlns="http://www.w3.org/2000/svg">
<ellipse cx="15.5" cy="15" rx="15.5" ry="15" fill="#64A4EC" fill-opacity="0.35"/>
<g clip-path="url(#clip0_6_645)">
<path fill-rule="evenodd" clip-rule="evenodd" d="M15.5 19.75C17.8472 19.75 19.75 17.8472 19.75 15.5C19.75 13.1528 17.8472 11.25 15.5 11.25C13.1528 11.25 11.25 13.1528 11.25 15.5C11.25 17.8472 13.1528 19.75 15.5 19.75ZM15.5 18.3333C17.0648 18.3333 18.3333 17.0648 18.3333 15.5C18.3333 13.9352 17.0648 12.6667 15.5 12.6667C13.9352 12.6667 12.6667 13.9352 12.6667 15.5C12.6667 17.0648 13.9352 18.3333 15.5 18.3333Z" fill="#204289" fill-opacity="0.81"/>
<path d="M19.75 10.542C19.3588 10.542 19.0417 10.8591 19.0417 11.2503C19.0417 11.6415 19.3588 11.9587 19.75 11.9587C20.1412 11.9587 20.4584 11.6415 20.4584 11.2503C20.4584 10.8591 20.1412 10.542 19.75 10.542Z" fill="#204289" fill-opacity="0.81"/>
<path fill-rule="evenodd" clip-rule="evenodd" d="M8.17153 10.0286C7.70831 10.9377 7.70831 12.1278 7.70831 14.508V16.4913C7.70831 18.8716 7.70831 20.0617 8.17153 20.9708C8.579 21.7705 9.22916 22.4207 10.0289 22.8281C10.938 23.2913 12.1281 23.2913 14.5083 23.2913H16.4916C18.8719 23.2913 20.062 23.2913 20.9711 22.8281C21.7708 22.4207 22.421 21.7705 22.8284 20.9708C23.2916 20.0617 23.2916 18.8716 23.2916 16.4913V14.508C23.2916 12.1278 23.2916 10.9377 22.8284 10.0286C22.421 9.22886 21.7708 8.57869 20.9711 8.17123C20.062 7.70801 18.8719 7.70801 16.4916 7.70801H14.5083C12.1281 7.70801 10.938 7.70801 10.0289 8.17123C9.22916 8.57869 8.579 9.22886 8.17153 10.0286ZM16.4916 9.12467H14.5083C13.2948 9.12467 12.4699 9.12578 11.8323 9.17787C11.2112 9.22862 10.8936 9.32059 10.672 9.43349C10.1389 9.70513 9.70544 10.1386 9.43379 10.6717C9.3209 10.8933 9.22892 11.2109 9.17818 11.832C9.12608 12.4696 9.12498 13.2945 9.12498 14.508V16.4913C9.12498 17.7049 9.12608 18.5297 9.17818 19.1674C9.22892 19.7885 9.3209 20.1061 9.43379 20.3277C9.70544 20.8608 10.1389 21.2942 10.672 21.5658C10.8936 21.6787 11.2112 21.7708 11.8323 21.8215C12.4699 21.8735 13.2948 21.8747 14.5083 21.8747H16.4916C17.7052 21.8747 18.53 21.8735 19.1677 21.8215C19.7888 21.7708 20.1064 21.6787 20.328 21.5658C20.8611 21.2942 21.2945 20.8608 21.5661 20.3277C21.6791 20.1061 21.7711 19.7885 21.8218 19.1674C21.8738 18.5297 21.875 17.7049 21.875 16.4913V14.508C21.875 13.2945 21.8738 12.4696 21.8218 11.832C21.7711 11.2109 21.6791 10.8933 21.5661 10.6717C21.2945 10.1386 20.8611 9.70513 20.328 9.43349C20.1064 9.32059 19.7888 9.22862 19.1677 9.17787C18.53 9.12578 17.7052 9.12467 16.4916 9.12467Z" fill="#204289" fill-opacity="0.81"/>
</g>
<defs>
<clipPath id="clip0_6_645">
<rect width="17" height="17" fill="white" transform="translate(7 7)"/>
</clipPath>
</defs>
</svg>
