<svg width="151" height="47" viewBox="0 0 151 47" fill="none" xmlns="http://www.w3.org/2000/svg">
<path d="M68.36 15.28C69.28 15.28 70.1 15.4 70.82 15.64C71.54 15.8667 72.14 16.2 72.62 16.64C73.1133 17.0667 73.4867 17.5867 73.74 18.2C73.9933 18.8 74.12 19.48 74.12 20.24C74.12 20.84 74.0267 21.44 73.84 22.04C73.6667 22.64 73.3733 23.1867 72.96 23.68C72.56 24.1733 72.0267 24.5733 71.36 24.88C70.6933 25.1733 69.8667 25.32 68.88 25.32H66.8V30H63.9V15.28H68.36ZM68.86 22.52C69.3 22.52 69.6667 22.4467 69.96 22.3C70.2533 22.1533 70.48 21.9667 70.64 21.74C70.8133 21.5133 70.9333 21.28 71 21.04C71.08 20.7867 71.12 20.5533 71.12 20.34C71.12 20.18 71.0933 19.98 71.04 19.74C71 19.4867 70.9067 19.2333 70.76 18.98C70.6133 18.7267 70.3867 18.5133 70.08 18.34C69.7867 18.1667 69.3867 18.08 68.88 18.08H66.8V22.52H68.86ZM71.58 24.32L75.22 30H71.84L68.12 24.4L71.58 24.32ZM77.6109 15.28H87.6509V18.08H80.5109V21.22H86.8309V24.02H80.5109V27.2H87.9309V30H77.6109V15.28ZM90.9313 30V14.68H90.9513L99.1312 26.28L97.8913 26L106.051 14.68H106.091V30H103.191V21.22L103.371 22.72L98.3913 29.8H98.3513L93.2313 22.72L93.7313 21.34V30H90.9313ZM109.896 15.28H119.936V18.08H112.796V21.22H119.116V24.02H112.796V27.2H120.216V30H109.896V15.28ZM123.216 30V15.28H127.616C129.096 15.28 130.356 15.5 131.396 15.94C132.436 16.38 133.27 16.9667 133.896 17.7C134.536 18.4333 135.003 19.2533 135.296 20.16C135.59 21.0667 135.736 21.98 135.736 22.9C135.736 23.9933 135.536 24.98 135.136 25.86C134.75 26.7267 134.216 27.4733 133.536 28.1C132.856 28.7133 132.07 29.1867 131.176 29.52C130.283 29.84 129.336 30 128.336 30H123.216ZM126.116 27.2H127.836C128.57 27.2 129.236 27.1067 129.836 26.92C130.436 26.72 130.95 26.4333 131.376 26.06C131.816 25.6867 132.15 25.22 132.376 24.66C132.616 24.0867 132.736 23.4333 132.736 22.7C132.736 21.74 132.576 20.96 132.256 20.36C131.95 19.7467 131.563 19.2733 131.096 18.94C130.643 18.6067 130.176 18.38 129.696 18.26C129.216 18.1267 128.81 18.06 128.476 18.06H126.116V27.2ZM141.47 25.42L136.05 15.28H139.63L143.43 22.92L142.57 22.98L146.31 15.28H149.89L144.37 25.42V30H141.47V25.42Z" fill="#2B6CF5"/>
<path d="M33.75 23.4998H32.2474C30.6917 23.4998 29.9139 23.4998 29.2691 23.8811C28.6245 24.2624 28.2242 24.959 27.4239 26.3521L27.366 26.453C26.6205 27.7508 26.2476 28.3998 25.7053 28.389C25.1629 28.3784 24.8136 27.7153 24.1153 26.3891L20.9516 20.3814C20.3004 19.1448 19.9749 18.5265 19.4548 18.4972C18.9349 18.4679 18.5475 19.0459 17.7727 20.202L17.242 20.9939C16.419 22.2218 16.0075 22.8357 15.397 23.1677C14.7865 23.4998 14.0689 23.4998 12.6338 23.4998H11.25" stroke="#2B6CF5" stroke-width="3" stroke-linecap="round"/>
<path d="M22.5 10.772L21.4867 11.7905C21.7519 12.0782 22.1177 12.2408 22.5 12.2408C22.8823 12.2408 23.2481 12.0782 23.5132 11.7905L22.5 10.772ZM4.98124 26.2346C5.39171 26.9232 6.25896 27.1339 6.91826 26.7052C7.57757 26.2765 7.77928 25.3706 7.36881 24.6821L4.98124 26.2346ZM12.2432 30.8864C11.6933 30.3136 10.803 30.3146 10.2544 30.889C9.70592 31.4632 9.70699 32.3932 10.2568 32.966L12.2432 30.8864ZM5.15625 17.8934C5.15625 12.4045 7.51354 8.99868 10.461 7.82768C13.4165 6.6535 17.5337 7.50081 21.4867 11.7905L23.5132 9.75348C19.0292 4.88767 13.7713 3.36969 9.46108 5.08211C5.14286 6.79769 2.34375 11.5304 2.34375 17.8934H5.15625ZM29.0674 38.1873C31.8654 35.8833 35.2194 32.7944 37.8864 29.3433C40.5236 25.9307 42.6562 21.9508 42.6562 17.8934H39.8437C39.8437 20.9307 38.2082 24.2498 35.6979 27.4983C33.2175 30.708 30.0448 33.6418 27.3262 35.8804L29.0674 38.1873ZM42.6562 17.8934C42.6562 11.5304 39.8571 6.79767 35.5389 5.08209C31.2287 3.36971 25.9708 4.88767 21.4867 9.75348L23.5132 11.7905C27.4663 7.50081 31.5834 6.6535 34.539 7.82768C37.4865 8.99866 39.8437 12.4044 39.8437 17.8934H42.6562ZM15.9327 38.1871C18.322 40.1545 19.9689 41.587 22.5 41.587V38.6495C21.1299 38.6495 20.2794 38.0257 17.6738 35.8804L15.9327 38.1871ZM27.3262 35.8804C24.7206 38.0257 23.8701 38.6495 22.5 38.6495V41.587C25.0311 41.587 26.6781 40.1545 29.0674 38.1873L27.3262 35.8804ZM7.36881 24.6821C5.97006 22.3356 5.15625 20.0361 5.15625 17.8934H2.34375C2.34375 20.7916 3.43226 23.6361 4.98124 26.2346L7.36881 24.6821ZM17.6738 35.8804C15.9545 34.4647 14.0455 32.7643 12.2432 30.8864L10.2568 32.966C12.1565 34.9455 14.1529 36.7217 15.9327 38.1871L17.6738 35.8804Z" fill="#2B6CF5"/>
</svg>
