<svg width="66" height="65" viewBox="0 0 66 65" fill="none" xmlns="http://www.w3.org/2000/svg">
<path d="M47.1475 55.231C44.9174 55.231 42.6873 54.3931 40.9857 52.7236L32.2072 44.0718L44.5307 31.9351L53.3092 40.5806C54.9463 42.1929 55.8486 44.3511 55.8486 46.6489C55.8486 48.9468 54.9463 51.105 53.3092 52.7173C51.6076 54.3931 49.3775 55.231 47.1475 55.231ZM33.5736 44.0718L41.6689 52.0444C44.6918 55.0215 49.6031 55.0215 52.626 52.0444C54.0826 50.6099 54.8883 48.6929 54.8883 46.6489C54.8883 44.605 54.0891 42.688 52.626 41.2534L44.5307 33.2808L33.5736 44.0718ZM21.2502 33.2808L12.4652 24.6353C10.8281 23.0166 9.92578 20.8647 9.92578 18.5669C9.92578 16.269 10.8281 14.1108 12.4652 12.4985C14.1023 10.8862 16.2937 9.99756 18.627 9.99756C20.9602 9.99756 23.1516 10.8862 24.7887 12.4985L33.5672 21.144L21.2502 33.2808ZM18.627 10.937C16.6418 10.937 14.6566 11.6797 13.1484 13.165C10.1256 16.1421 10.1256 20.979 13.1484 23.9561L21.2438 31.9287L32.2008 21.1377L24.1055 13.1714C22.5973 11.686 20.6121 10.937 18.627 10.937Z" fill="#64A4EC" fill-opacity="0.5"/>
<path d="M22.7494 32.9667L33.1723 22.7017L42.9117 32.2934L32.4887 42.5585L22.7494 32.9667Z" fill="#64A4EC" fill-opacity="0.35"/>
<path d="M18.6398 55.415C16.442 55.415 14.373 54.5771 12.8262 53.0537L12.1236 52.3618C8.92032 49.207 8.92032 44.0718 12.1236 40.917L41.3402 12.1431C42.8871 10.6196 44.9496 9.78174 47.1539 9.78174C49.3582 9.78174 51.4207 10.6196 52.9676 12.1431L53.6701 12.835C55.217 14.3584 56.0678 16.3896 56.0678 18.5605C56.0678 20.7314 55.217 22.7627 53.6701 24.2861L24.4535 53.0537C22.9066 54.5771 20.8441 55.415 18.6398 55.415ZM47.1604 10.7339C45.2203 10.7339 43.3963 11.4702 42.0363 12.8159L12.8133 41.5898C9.98379 44.3765 9.98379 48.9023 12.8133 51.689L13.5158 52.3809C14.8822 53.7266 16.6998 54.4629 18.6398 54.4629C20.5799 54.4629 22.4039 53.7202 23.7639 52.3809L52.9805 23.6069C54.3469 22.2612 55.0945 20.4712 55.0945 18.5605C55.0945 16.6499 54.3404 14.8535 52.9805 13.5142L52.2779 12.8223C50.9244 11.4702 49.1004 10.7339 47.1604 10.7339Z" fill="currentColor"/>
<path d="M32.3596 27.1638C32.4665 27.1809 32.5758 27.1771 32.6813 27.1526C32.7867 27.1281 32.8862 27.0833 32.9741 27.021C33.062 26.9586 33.1366 26.8798 33.1935 26.789C33.2505 26.6982 33.2887 26.5973 33.3061 26.492C33.3235 26.3867 33.3196 26.279 33.2947 26.1752C33.2698 26.0713 33.2244 25.9733 33.1611 25.8868C33.0977 25.8002 33.0177 25.7268 32.9255 25.6707C32.8334 25.6146 32.7309 25.5769 32.6239 25.5598C32.517 25.5427 32.4077 25.5465 32.3022 25.571C32.1968 25.5956 32.0973 25.6403 32.0094 25.7027C31.9215 25.7651 31.8469 25.8439 31.79 25.9346C31.733 26.0254 31.6948 26.1263 31.6774 26.2316C31.6601 26.337 31.6639 26.4446 31.6888 26.5485C31.7137 26.6523 31.7591 26.7503 31.8225 26.8369C31.8858 26.9234 31.9659 26.9969 32.058 27.053C32.1502 27.1091 32.2526 27.1467 32.3596 27.1638Z" fill="white"/>
<path d="M32.4908 27.4282C32.2137 27.4282 31.9365 27.3267 31.7238 27.1172C31.3049 26.7046 31.3049 26.0254 31.7238 25.6128C31.9301 25.4097 32.2008 25.3018 32.4908 25.3018C32.7809 25.3018 33.0516 25.4097 33.2578 25.6128C33.6768 26.0254 33.6768 26.7046 33.2578 27.1172C33.0387 27.3203 32.768 27.4282 32.4908 27.4282ZM32.4908 25.8096C32.3426 25.8096 32.2008 25.8667 32.0912 25.9746C31.8721 26.1904 31.8721 26.5459 32.0912 26.7617C32.3104 26.9775 32.6713 26.9775 32.8904 26.7617C33.1096 26.5459 33.1096 26.1904 32.8904 25.9746C32.7809 25.8667 32.6391 25.8096 32.4908 25.8096Z" fill="#64A4EC" fill-opacity="0.5"/>
<path d="M35.0367 29.6816C35.0367 29.8971 35.1236 30.1038 35.2784 30.2562C35.4331 30.4085 35.6429 30.4941 35.8617 30.4941C36.0805 30.4941 36.2904 30.4085 36.4451 30.2562C36.5998 30.1038 36.6867 29.8971 36.6867 29.6816C36.6867 29.4662 36.5998 29.2595 36.4451 29.1071C36.2904 28.9547 36.0805 28.8691 35.8617 28.8691C35.6429 28.8691 35.4331 28.9547 35.2784 29.1071C35.1236 29.2595 35.0367 29.4662 35.0367 29.6816Z" fill="white"/>
<path d="M35.8617 30.7482C35.5846 30.7482 35.3074 30.6466 35.0947 30.4371C34.6758 30.0245 34.6758 29.3453 35.0947 28.9327C35.5137 28.5201 36.2033 28.5201 36.6223 28.9327C37.0412 29.3453 37.0412 30.0245 36.6223 30.4371C36.4096 30.6403 36.1324 30.7482 35.8617 30.7482ZM35.8617 29.1295C35.7199 29.1295 35.5717 29.1866 35.4621 29.2946C35.243 29.5104 35.243 29.8658 35.4621 30.0817C35.6813 30.2975 36.0422 30.2975 36.2613 30.0817C36.4805 29.8658 36.4805 29.5104 36.2613 29.2946C36.1453 29.1803 36.0035 29.1295 35.8617 29.1295Z" fill="#64A4EC" fill-opacity="0.5"/>
<path d="M38.4012 33.0015C38.4012 33.217 38.4881 33.4236 38.6428 33.576C38.7975 33.7284 39.0074 33.814 39.2262 33.814C39.445 33.814 39.6548 33.7284 39.8095 33.576C39.9643 33.4236 40.0512 33.217 40.0512 33.0015C40.0512 32.786 39.9643 32.5793 39.8095 32.4269C39.6548 32.2746 39.445 32.189 39.2262 32.189C39.0074 32.189 38.7975 32.2746 38.6428 32.4269C38.4881 32.5793 38.4012 32.786 38.4012 33.0015Z" fill="white"/>
<path d="M39.2262 34.0679C38.949 34.0679 38.6719 33.9663 38.4592 33.7568C38.2529 33.5537 38.1434 33.2871 38.1434 33.0015C38.1434 32.7158 38.2529 32.4492 38.4592 32.2461C38.6654 32.043 38.9361 31.9351 39.2262 31.9351C39.5162 31.9351 39.7869 32.043 39.9932 32.2461C40.1994 32.4492 40.309 32.7158 40.309 33.0015C40.309 33.2871 40.1994 33.5537 39.9932 33.7568C39.7805 33.96 39.5033 34.0679 39.2262 34.0679ZM39.2262 32.4429C39.0779 32.4429 38.9361 32.5 38.8266 32.6079C38.717 32.7158 38.659 32.8555 38.659 33.0015C38.659 33.1475 38.717 33.2871 38.8266 33.395C39.0457 33.6108 39.4066 33.6108 39.6258 33.395C39.7354 33.2871 39.7934 33.1475 39.7934 33.0015C39.7934 32.8555 39.7354 32.7158 39.6258 32.6079C39.5227 32.5063 39.3809 32.4429 39.2262 32.4429Z" fill="#64A4EC" fill-opacity="0.5"/>
<path d="M28.7074 29.2754C28.7074 29.4909 28.7943 29.6975 28.9491 29.8499C29.1038 30.0023 29.3136 30.0879 29.5324 30.0879C29.7512 30.0879 29.9611 30.0023 30.1158 29.8499C30.2705 29.6975 30.3574 29.4909 30.3574 29.2754C30.3574 29.0599 30.2705 28.8532 30.1158 28.7009C29.9611 28.5485 29.7512 28.4629 29.5324 28.4629C29.3136 28.4629 29.1038 28.5485 28.9491 28.7009C28.7943 28.8532 28.7074 29.0599 28.7074 29.2754Z" fill="white"/>
<path d="M29.5324 30.3419C29.2553 30.3419 28.9781 30.2404 28.7654 30.0309C28.5592 29.8278 28.4496 29.5612 28.4496 29.2755C28.4496 28.9899 28.5592 28.7233 28.7654 28.5201C29.1844 28.1075 29.874 28.1075 30.293 28.5201C30.4992 28.7233 30.6088 28.9899 30.6088 29.2755C30.6088 29.5612 30.4992 29.8278 30.293 30.0309C30.0803 30.234 29.8096 30.3419 29.5324 30.3419ZM29.5324 28.7233C29.3906 28.7233 29.2424 28.7804 29.1328 28.8883C29.0232 28.9962 28.9652 29.1359 28.9652 29.2819C28.9652 29.4279 29.0232 29.5675 29.1328 29.6754C29.352 29.8912 29.7129 29.8912 29.932 29.6754C30.0416 29.5675 30.0996 29.4279 30.0996 29.2819C30.0996 29.1359 30.0416 28.9962 29.932 28.8883C29.816 28.774 29.6742 28.7233 29.5324 28.7233Z" fill="#64A4EC" fill-opacity="0.5"/>
<path d="M32.0783 32.5952C32.0783 32.8107 32.1652 33.0174 32.32 33.1697C32.4747 33.3221 32.6845 33.4077 32.9033 33.4077C33.1221 33.4077 33.332 33.3221 33.4867 33.1697C33.6414 33.0174 33.7283 32.8107 33.7283 32.5952C33.7283 32.3797 33.6414 32.1731 33.4867 32.0207C33.332 31.8683 33.1221 31.7827 32.9033 31.7827C32.6845 31.7827 32.4747 31.8683 32.32 32.0207C32.1652 32.1731 32.0783 32.3797 32.0783 32.5952Z" fill="white"/>
<path d="M32.9033 33.6615C32.6133 33.6615 32.3426 33.5536 32.1363 33.3505C31.9301 33.1473 31.8205 32.8807 31.8205 32.5951C31.8205 32.3094 31.9301 32.0428 32.1363 31.8397C32.5553 31.4271 33.2449 31.4271 33.6639 31.8397C33.8701 32.0428 33.9797 32.3094 33.9797 32.5951C33.9797 32.8807 33.8701 33.1473 33.6639 33.3505C33.4576 33.5472 33.1869 33.6615 32.9033 33.6615ZM32.9033 32.0428C32.7615 32.0428 32.6133 32.1 32.5037 32.2079C32.3941 32.3158 32.3361 32.4554 32.3361 32.6014C32.3361 32.7474 32.3941 32.8871 32.5037 32.995C32.6133 33.1029 32.7551 33.16 32.9033 33.16C33.0516 33.16 33.1934 33.1029 33.3029 32.995C33.4125 32.8871 33.4705 32.7474 33.4705 32.6014C33.4705 32.4554 33.4125 32.3158 33.3029 32.2079C33.1869 32.0936 33.0451 32.0428 32.9033 32.0428Z" fill="#64A4EC" fill-opacity="0.5"/>
<path d="M35.4428 35.915C35.4428 36.1305 35.5297 36.3372 35.6844 36.4896C35.8391 36.6419 36.049 36.7275 36.2678 36.7275C36.4866 36.7275 36.6964 36.6419 36.8511 36.4896C37.0059 36.3372 37.0928 36.1305 37.0928 35.915C37.0928 35.6995 37.0059 35.4929 36.8511 35.3405C36.6964 35.1881 36.4866 35.1025 36.2678 35.1025C36.049 35.1025 35.8391 35.1881 35.6844 35.3405C35.5297 35.4929 35.4428 35.6995 35.4428 35.915Z" fill="white"/>
<path d="M36.2678 36.9813C35.9906 36.9813 35.7135 36.8798 35.5008 36.6703C35.0818 36.2577 35.0818 35.5785 35.5008 35.1659C35.9197 34.7533 36.6094 34.7533 37.0283 35.1659C37.4473 35.5785 37.4473 36.2577 37.0283 36.6703C36.8221 36.8734 36.5449 36.9813 36.2678 36.9813ZM36.2678 35.3563C36.126 35.3563 35.9777 35.4135 35.8682 35.5214C35.649 35.7372 35.649 36.0927 35.8682 36.3085C36.0873 36.5243 36.4482 36.5243 36.6674 36.3085C36.8865 36.0927 36.8865 35.7372 36.6674 35.5214C36.5578 35.4135 36.416 35.3563 36.2678 35.3563Z" fill="#64A4EC" fill-opacity="0.5"/>
<path d="M25.749 32.189C25.749 32.4045 25.8359 32.6111 25.9907 32.7635C26.1454 32.9159 26.3552 33.0015 26.574 33.0015C26.7928 33.0015 27.0027 32.9159 27.1574 32.7635C27.3121 32.6111 27.399 32.4045 27.399 32.189C27.399 31.9735 27.3121 31.7668 27.1574 31.6144C27.0027 31.4621 26.7928 31.3765 26.574 31.3765C26.3552 31.3765 26.1454 31.4621 25.9907 31.6144C25.8359 31.7668 25.749 31.9735 25.749 32.189Z" fill="white"/>
<path d="M26.574 33.2554C26.284 33.2554 26.0133 33.1475 25.807 32.9443C25.6008 32.7412 25.4912 32.4746 25.4912 32.189C25.4912 31.9033 25.6008 31.6367 25.807 31.4336C26.0133 31.2305 26.284 31.1226 26.574 31.1226C26.8641 31.1226 27.1348 31.2305 27.341 31.4336C27.76 31.8462 27.76 32.5254 27.341 32.938C27.1283 33.1411 26.8576 33.2554 26.574 33.2554ZM26.574 31.6367C26.4258 31.6367 26.284 31.6938 26.1744 31.8018C26.0648 31.9097 26.0068 32.0493 26.0068 32.1953C26.0068 32.3413 26.0648 32.481 26.1744 32.5889C26.284 32.6968 26.4258 32.7539 26.574 32.7539C26.7223 32.7539 26.8641 32.6968 26.9736 32.5889C27.1928 32.373 27.1928 32.0176 26.9736 31.8018C26.8641 31.6938 26.7223 31.6367 26.574 31.6367Z" fill="#64A4EC" fill-opacity="0.5"/>
<path d="M29.1199 35.5088C29.1199 35.7243 29.2068 35.9309 29.3616 36.0833C29.5163 36.2357 29.7261 36.3213 29.9449 36.3213C30.1637 36.3213 30.3736 36.2357 30.5283 36.0833C30.683 35.9309 30.7699 35.7243 30.7699 35.5088C30.7699 35.2933 30.683 35.0866 30.5283 34.9343C30.3736 34.7819 30.1637 34.6963 29.9449 34.6963C29.7261 34.6963 29.5163 34.7819 29.3616 34.9343C29.2068 35.0866 29.1199 35.2933 29.1199 35.5088Z" fill="white"/>
<path d="M29.9449 36.5752C29.6549 36.5752 29.3842 36.4673 29.1779 36.2642C28.9717 36.061 28.8621 35.7944 28.8621 35.5088C28.8621 35.2231 28.9717 34.9565 29.1779 34.7534C29.3842 34.5503 29.6549 34.4424 29.9449 34.4424C30.235 34.4424 30.5057 34.5503 30.7119 34.7534C30.9182 34.9565 31.0277 35.2231 31.0277 35.5088C31.0277 35.7944 30.9182 36.061 30.7119 36.2642C30.4992 36.4609 30.2285 36.5752 29.9449 36.5752ZM29.9449 34.9502C29.7967 34.9502 29.6549 35.0073 29.5453 35.1152C29.4357 35.2231 29.3777 35.3628 29.3777 35.5088C29.3777 35.6548 29.4357 35.7944 29.5453 35.9023C29.6549 36.0103 29.7967 36.0674 29.9449 36.0674C30.0932 36.0674 30.235 36.0103 30.3445 35.9023C30.4541 35.7944 30.5121 35.6548 30.5121 35.5088C30.5121 35.3628 30.4541 35.2231 30.3445 35.1152C30.235 35.0137 30.0932 34.9502 29.9449 34.9502Z" fill="#64A4EC" fill-opacity="0.5"/>
<path d="M32.4844 38.8286C32.4844 39.0441 32.5713 39.2508 32.726 39.4031C32.8807 39.5555 33.0906 39.6411 33.3094 39.6411C33.5282 39.6411 33.738 39.5555 33.8927 39.4031C34.0475 39.2508 34.1344 39.0441 34.1344 38.8286C34.1344 38.6131 34.0475 38.4065 33.8927 38.2541C33.738 38.1017 33.5282 38.0161 33.3094 38.0161C33.0906 38.0161 32.8807 38.1017 32.726 38.2541C32.5713 38.4065 32.4844 38.6131 32.4844 38.8286Z" fill="white"/>
<path d="M33.3094 39.895C33.0322 39.895 32.7551 39.7935 32.5424 39.584C32.1234 39.1714 32.1234 38.4922 32.5424 38.0796C32.7486 37.8765 33.0193 37.7686 33.3094 37.7686C33.5994 37.7686 33.8701 37.8765 34.0764 38.0796C34.4953 38.4922 34.4953 39.1714 34.0764 39.584C33.8637 39.7871 33.5865 39.895 33.3094 39.895ZM33.3094 38.27C33.1611 38.27 33.0193 38.3271 32.9098 38.4351C32.6906 38.6509 32.6906 39.0063 32.9098 39.2222C33.1289 39.438 33.4898 39.438 33.709 39.2222C33.9281 39.0063 33.9281 38.6509 33.709 38.4351C33.6059 38.3335 33.4641 38.27 33.3094 38.27Z" fill="#64A4EC" fill-opacity="0.5"/>
<path d="M21.8503 33.9945L22.2148 33.6354L32.0225 43.2945L31.6579 43.6536L21.8503 33.9945ZM33.7156 22.1051L34.0802 21.7461L43.8879 31.4052L43.5233 31.7643L33.7156 22.1051Z" fill="#64A4EC" fill-opacity="0.35"/>
</svg>
