<svg width="60" height="59" viewBox="0 0 60 59" fill="none" xmlns="http://www.w3.org/2000/svg">
<path d="M25.1653 14.3085C25.3587 14.3085 25.5501 14.2711 25.7287 14.1983C25.9074 14.1256 26.0697 14.0189 26.2064 13.8845C26.3431 13.75 26.4516 13.5904 26.5256 13.4148C26.5996 13.2391 26.6376 13.0509 26.6376 12.8607C26.6376 12.6706 26.5996 12.4823 26.5256 12.3067C26.4516 12.131 26.3431 11.9714 26.2064 11.837C26.0697 11.7025 25.9074 11.5959 25.7287 11.5231C25.5501 11.4504 25.3587 11.4129 25.1653 11.4129C24.9688 11.408 24.7733 11.4419 24.5904 11.5125C24.4074 11.583 24.2407 11.6889 24.0999 11.8238C23.9592 11.9587 23.8474 12.12 23.771 12.2981C23.6947 12.4762 23.6553 12.6675 23.6553 12.8607C23.6553 13.054 23.6947 13.2453 23.771 13.4234C23.8474 13.6015 23.9592 13.7627 24.0999 13.8976C24.2407 14.0326 24.4074 14.1384 24.5904 14.209C24.7733 14.2796 24.9688 14.3134 25.1653 14.3085ZM27.5925 19.5485C26.5931 19.5485 26.0522 18.5501 26.0475 18.539C25.9931 18.4364 25.9187 18.3454 25.8285 18.2711C25.7384 18.1968 25.6342 18.1408 25.522 18.1061C25.4097 18.0714 25.2917 18.0588 25.1745 18.069C25.0573 18.0793 24.9433 18.1121 24.8391 18.1657C24.6293 18.2731 24.471 18.4575 24.3987 18.679C24.3264 18.9004 24.3458 19.141 24.4528 19.3484C24.4922 19.4249 25.4831 21.3139 27.5925 21.3139C28.4194 21.3139 29.1066 21.1405 29.6587 20.8114C30.1856 21.1682 30.8672 21.3627 31.7025 21.3627C33.6337 21.3627 34.545 19.3871 34.5844 19.3023C34.6797 19.0894 34.6854 18.8481 34.6002 18.6311C34.515 18.4141 34.3458 18.2391 34.1297 18.1445C34.0222 18.096 33.906 18.0691 33.7879 18.0652C33.6698 18.0614 33.552 18.0807 33.4416 18.1221C33.3311 18.1634 33.2301 18.226 33.1445 18.3061C33.0588 18.3863 32.9903 18.4823 32.9428 18.5888C32.9409 18.5962 32.4609 19.5992 31.7016 19.5992C31.0303 19.5992 30.7331 19.4314 30.6075 19.3245V17.8338C30.9084 17.7762 31.1797 17.6179 31.3752 17.3858C31.5708 17.1537 31.6785 16.8621 31.68 16.5607C31.68 15.8269 31.0744 15.2027 30.3619 15.2027L29.1131 15.2129C28.3584 15.2129 27.7444 15.8204 27.7444 16.5607C27.7444 17.1986 28.2 17.7388 28.8141 17.8762V19.2645C28.6537 19.3798 28.2966 19.5485 27.5925 19.5485ZM18.8494 0.742217C23.3934 0.524654 24.2644 3.83142 24.2644 3.83142C24.2644 3.83142 26.3719 2.56384 29.6634 2.56384C32.9531 2.56384 35.0578 3.83142 35.0578 3.83142C35.0578 3.83142 35.9316 0.524654 40.4756 0.742217C43.1231 0.867592 45.2841 3.04229 45.2841 5.64936C45.2841 8.09048 43.6509 11.3677 40.9866 11.4507L40.6481 11.4609C40.7241 11.9043 40.7531 13.1414 40.7531 13.4687C40.7531 19.4839 35.7769 24.3809 29.6644 24.3809C23.55 24.3809 18.5728 19.4839 18.5728 13.4687C18.5728 13.1414 18.6 11.9052 18.6797 11.4609L18.3366 11.4507C15.675 11.3677 14.0437 8.09048 14.0437 5.64936C14.0437 3.04229 16.2028 0.867592 18.8494 0.742217ZM23.6531 38.5926V34.2717H27.5381V30.4524H31.9275V34.2717H35.8162V38.5926H31.9275V42.4119H27.5391V38.5926L23.6541 38.5916L23.6531 38.5926ZM9.51843 38.0653C9.32156 33.2005 11.9606 29.1627 14.5641 25.8532L14.9222 25.383C15.7762 24.2445 16.3378 23.4922 18.9356 23.6702C20.925 23.8094 22.9331 25.2687 22.9331 27.7946V27.8149C22.9256 29.3342 21.9159 30.6985 20.8481 32.1367C19.5497 33.8864 18.0787 35.8657 18.0787 38.5594C18.0787 39.3301 18.2503 39.9284 18.4191 40.4981C18.5812 41.0613 18.735 41.5905 18.735 42.2718C18.735 44.5921 16.74 46.481 14.2903 46.481C11.3466 46.482 9.74249 43.6481 9.51656 38.0653H9.51843ZM22.4644 58.2534C19.2112 58.2534 16.5647 55.6546 16.5647 52.4566C16.5647 49.2587 19.2122 46.6599 22.4644 46.6599C24.0274 46.6614 25.5259 47.2726 26.6311 48.3593C27.7363 49.4461 28.3579 50.9197 28.3594 52.4566C28.3581 53.9937 27.7366 55.4674 26.6314 56.5542C25.5261 57.6411 24.0274 58.2522 22.4644 58.2534ZM36.96 58.2534C33.7087 58.2534 31.0603 55.6546 31.0603 52.4566C31.0603 49.2587 33.7078 46.6599 36.96 46.6599C40.2131 46.6599 42.8606 49.2587 42.8606 52.4566C42.8606 55.6555 40.2131 58.2534 36.96 58.2534ZM45.0309 46.482C42.5812 46.482 40.5862 44.594 40.5862 42.2727C40.5862 41.5914 40.74 41.0623 40.9022 40.499C41.0719 39.9284 41.2425 39.331 41.2425 38.5603C41.2425 35.8675 39.7734 33.8873 38.4741 32.1376C37.4053 30.6967 36.3975 29.336 36.3891 27.8158V27.7956C36.3891 25.2696 38.3962 23.8103 40.3866 23.6711C42.9797 23.4932 43.545 24.2463 44.3981 25.3849L44.7591 25.855C47.3644 29.1645 49.9959 33.2014 49.8047 38.0662C49.5778 43.649 47.9709 46.4829 45.03 46.4829L45.0309 46.482ZM34.1794 14.3085C34.57 14.3093 34.9449 14.1574 35.2216 13.8863C35.4984 13.6152 35.6542 13.2471 35.655 12.863C35.6557 12.4789 35.5013 12.1103 35.2256 11.8381C34.9499 11.566 34.5756 11.4127 34.185 11.412C33.9916 11.4116 33.8 11.4487 33.6212 11.5212C33.4423 11.5936 33.2798 11.7 33.1427 11.8342C32.866 12.1053 32.7101 12.4734 32.7094 12.8575C32.7086 13.2416 32.8631 13.6103 33.1388 13.8824C33.4144 14.1545 33.7888 14.3078 34.1794 14.3085Z" fill="url(#paint0_linear_4_381)"/>
<defs>
<linearGradient id="paint0_linear_4_381" x1="29.6613" y1="0.731934" x2="29.6613" y2="58.2534" gradientUnits="userSpaceOnUse">
<stop stop-color="#2B6CF5"/>
<stop offset="1" stop-color="#193F8F"/>
</linearGradient>
</defs>
</svg>
