<svg width="34" height="31" viewBox="0 0 34 31" fill="none" xmlns="http://www.w3.org/2000/svg">
<g clip-path="url(#clip0_6_591)">
<path d="M16.9999 0.000488281C7.61055 0.00109375 0.000664063 6.93928 0 15.5004C0.000664063 24.0621 7.61348 30.9597 16.9951 31.0002H17.0173L17.037 30.9997C18.8382 31.002 20.3246 30.4834 21.3508 29.6317C22.378 28.7834 22.9264 27.6183 22.9252 26.4387C22.9265 25.8848 22.7981 25.3303 22.5585 24.8025C22.9627 24.5928 23.2321 24.4022 23.309 24.3518C23.5847 24.1727 24.3715 23.2156 23.8199 22.427C23.2658 21.639 21.2936 19.843 20.7551 19.5388C20.2181 19.2351 19.3208 19.5313 18.8887 20.1095C18.4554 20.6877 18.1135 20.5145 18.1135 20.5145C18.1135 20.5145 16.8839 19.6089 15.1834 16.4808C13.4829 13.3509 13.4394 11.9123 13.4394 11.9123C13.4394 11.9123 13.4947 11.5583 14.262 11.5936C15.0277 11.6312 15.8291 11.1596 15.89 10.5849C15.9516 10.0119 15.578 7.49153 15.226 6.61318C14.8729 5.73428 13.5617 5.72616 13.2386 5.81771C12.9138 5.90865 9.58402 6.64793 9.31965 9.82652C9.05628 13.0056 9.95483 15.8921 11.2416 18.2612C12.5291 20.6298 14.5041 23.0302 17.4374 24.7643C18.6254 25.4666 19.7654 25.5575 20.724 25.4104C20.8889 25.7458 20.9709 26.094 20.9728 26.4388C20.9709 27.1225 20.6659 27.7922 20.0387 28.3137C19.4099 28.8322 18.4402 29.2175 17.0371 29.2199L17.0029 29.2204C8.68574 29.1815 1.95148 23.0742 1.95214 15.5004C1.95281 11.7089 3.63481 8.28403 6.35933 5.79852C9.0855 3.3147 12.8414 1.78099 16.9999 1.78038C21.1583 1.78099 24.9142 3.31464 27.6403 5.79852C30.3651 8.28409 32.0466 11.7083 32.0479 15.5004C32.0472 17.8417 31.406 20.0393 30.2749 21.9658C29.642 23.0458 28.854 24.0383 27.939 24.9212C27.5692 25.2787 27.5869 25.8419 27.9784 26.1791C28.3698 26.5169 28.9881 26.5013 29.3586 26.1438C30.3906 25.1472 31.2802 24.0261 31.9957 22.8053C33.2742 20.6297 34 18.1395 34 15.5004C33.9987 6.93928 26.3891 0.00109375 16.9999 0.000488281Z" fill="#2B6CF5"/>
</g>
<defs>
<clipPath id="clip0_6_591">
<rect width="34" height="31" fill="white"/>
</clipPath>
</defs>
</svg>
