<svg width="31" height="30" viewBox="0 0 31 30" fill="none" xmlns="http://www.w3.org/2000/svg">
<ellipse cx="15.5" cy="15" rx="15.5" ry="15" fill="#64A4EC" fill-opacity="0.35"/>
<path d="M14.7571 17.2384C14.2852 19.5743 13.7093 21.8136 12.0027 22.9834C11.4755 19.4529 12.776 16.8014 13.3799 13.9863C12.3501 12.3497 13.5036 9.05571 15.6751 9.86716C18.347 10.8654 13.3615 15.9526 16.708 16.588C20.2027 17.2512 21.6295 10.8613 19.4628 8.78351C16.3317 5.78288 10.3487 8.71518 11.0843 13.0112C11.2632 14.0613 12.412 14.3798 11.5435 15.8296C9.53956 15.4096 8.94176 13.9171 9.0185 11.9271C9.14261 8.66965 12.1172 6.3893 15.1014 6.07367C18.8751 5.67477 22.4167 7.3818 22.9058 10.7346C23.4566 14.519 21.2027 18.6174 17.1672 18.3225C16.0733 18.2421 15.6141 17.7301 14.7571 17.2384Z" fill="#204289" fill-opacity="0.81"/>
</svg>
