<svg width="57" height="60" viewBox="0 0 57 60" fill="none" xmlns="http://www.w3.org/2000/svg">
<path d="M17.0341 15.8794L15.5859 13.5356C5.56641 20.625 0 29.2388 0 36.3281C0 43.1831 4.788 46.4063 8.85103 46.4063C13.9721 46.4063 17.5898 41.835 17.5898 37.0313C17.5898 32.9888 15.1406 29.5313 11.856 28.2413C10.9102 27.8888 10.0195 27.5963 10.0195 25.8975C10.0195 23.73 11.5229 20.5088 17.0341 15.8794ZM39.1323 15.8794L37.6841 13.5356C27.775 20.625 22.0982 29.2388 22.0982 36.3281C22.0982 43.1831 26.9966 46.4063 31.0597 46.4063C36.236 46.4063 39.9107 41.835 39.9107 37.0313C39.9107 32.9888 37.4063 29.5313 34.0094 28.2413C33.0636 27.8888 32.2282 27.5963 32.2282 25.8975C32.2282 23.73 33.7868 20.5069 39.1305 15.8775L39.1323 15.8794Z" fill="url(#paint0_linear_4_55)"/>
<defs>
<linearGradient id="paint0_linear_4_55" x1="19.9553" y1="13.5356" x2="19.9553" y2="46.4063" gradientUnits="userSpaceOnUse">
<stop stop-color="#2B6CF5"/>
<stop offset="1" stop-color="#193F8F"/>
</linearGradient>
</defs>
</svg>
